<?xml version="1.0" encoding="UTF-8" standalone="no"?>
<svg
   xmlns:dc="http://purl.org/dc/elements/1.1/"
   xmlns:cc="http://creativecommons.org/ns#"
   xmlns:rdf="http://www.w3.org/1999/02/22-rdf-syntax-ns#"
   xmlns:svg="http://www.w3.org/2000/svg"
   xmlns="http://www.w3.org/2000/svg"
   id="svg8"
   version="1.1"
   viewBox="0 0 108 102"
   height="102mm"
   width="108mm">
  <defs
     id="defs2" />
  <metadata
     id="metadata5">
    <rdf:RDF>
      <cc:Work
         rdf:about="">
        <dc:format>image/svg+xml</dc:format>
        <dc:type
           rdf:resource="http://purl.org/dc/dcmitype/StillImage" />
        <dc:title></dc:title>
      </cc:Work>
    </rdf:RDF>
  </metadata>
  <g
     transform="translate(0,-195)"
     id="layer1">
    <path
       d="m 86.934522,296.62202 c -0.277887,0.1897 -33.183467,-23.67399 -33.519927,-23.67433 -0.328281,-3.3e-4 -32.079704,23.80845 -32.339513,23.60779 -0.266284,-0.20567 12.261049,-38.87502 12.157399,-39.19512 C 33.13135,257.04805 0.67611983,234.20797 0.78667925,233.89887 0.89999347,233.58206 41.547892,233.54678 41.820292,233.34928 c 0.265778,-0.19269 11.958766,-38.11742 12.286905,-38.10779 0.336316,0.01 12.930765,38.65742 13.202769,38.85546 0.26539,0.19322 39.947284,-0.40547 40.039524,-0.0904 0.0945,0.32291 -32.769558,24.24369 -32.873852,24.56358 -0.101757,0.31211 12.730014,37.86682 12.458884,38.05191 z"
       id="path4522"
       style="fill:#60b6bf;fill-opacity:1;stroke:none;stroke-width:5.5562501;stroke-linecap:round;stroke-linejoin:round;stroke-miterlimit:4;stroke-dasharray:none;stroke-dashoffset:0;stroke-opacity:1;paint-order:stroke fill markers" />
  </g>
</svg>
